<svg width="1921" height="367" viewBox="0 0 1921 367" fill="none" xmlns="http://www.w3.org/2000/svg">
<path fill-rule="evenodd" clip-rule="evenodd" d="M0 236.896V366.202H1920V315.203C1920 315.203 1784.36 286.891 1696.67 273.137C1620.8 261.235 1571.23 255.904 1505.58 248.843C1489.16 247.077 1471.73 245.203 1452.63 243.09C1446.37 242.397 1440.26 241.721 1434.29 241.059C1331.19 229.64 1267.99 222.64 1159.58 215.046C1082.02 209.613 1035.99 207.733 962.854 204.745C957.19 204.514 951.364 204.276 945.348 204.029C932.883 203.517 920.99 203.022 909.549 202.546C811.471 198.464 746.607 195.764 639.664 196.016C530.108 196.275 359.243 204.029 359.243 204.029L0 236.896Z" fill="#4154AF"/>
<path d="M-0.000976562 243.081L360.882 210.029C360.882 210.029 531.567 202.275 641.008 202.016C760.301 201.735 827.18 205.134 946.371 210.029C1029.99 213.463 1076.9 215.192 1160.38 221.046C1274.95 229.08 1338.98 236.45 1453.12 249.09C1548.47 259.648 1602.15 264.258 1696.91 279.137C1784.5 292.891 1920 321.203 1920 321.203V37.259C1920 37.259 1784.25 57.0018 1696.91 66.8051C1601.92 77.4676 1548.51 82.4981 1453.12 88.8396C1342.71 96.1804 1280.61 97.9588 1169.97 99.8568C1082.66 101.354 1033.68 101.187 946.371 99.8568C827.055 98.0385 760.153 95.4463 641.008 88.8396C531.485 82.7664 469.76 81.5625 360.882 68.3075C286.227 59.2188 244.45 52.906 170.598 38.7613C122.274 29.5058 95.4148 23.1353 47.4438 12.2199C28.8963 7.99949 -0.000976562 1.20264 -0.000976562 1.20264V243.081Z" fill="#4154AF"/>
<path d="M2.01685 242.5L362.521 209.5C362.521 209.5 533.026 201.758 642.353 201.5C761.52 201.219 828.329 204.613 947.394 209.5C1030.92 212.929 1077.78 214.655 1161.18 220.5C1275.63 228.522 1339.59 235.88 1453.61 248.5C1548.86 259.041 1602.49 263.644 1697.14 278.5C1784.64 292.232 1920 320.5 1920 320.5V37C1920 37 1784.39 56.712 1697.14 66.5C1602.25 77.1458 1548.9 82.1684 1453.61 88.5C1343.31 95.8294 1281.29 97.605 1170.76 99.5C1083.54 100.995 1034.61 100.828 947.394 99.5C828.204 97.6845 761.372 95.0964 642.353 88.5C532.944 82.4363 471.284 81.2343 362.521 68C287.944 58.9255 246.211 52.6226 172.437 38.5C124.163 29.259 97.3324 22.8984 49.4118 12C30.8837 7.78623 2.01685 1 2.01685 1V242.5Z" fill="#F1F3FA" stroke="#F1F3FA"/>
</svg>
