<svg width="1884" height="171" viewBox="0 0 1884 171" fill="none" xmlns="http://www.w3.org/2000/svg">
<path fill-rule="evenodd" clip-rule="evenodd" d="M0 40.8957V170.202H1884L1884 119.203C1884 119.203 1750.9 90.8908 1664.86 77.1368C1590.41 65.2352 1541.77 59.904 1477.35 52.8434C1461.24 51.0771 1444.14 49.2026 1425.39 47.0899C1419.25 46.3973 1413.26 45.7206 1407.39 45.0588C1306.23 33.6402 1244.21 26.64 1137.84 19.046C1061.73 13.6129 1016.57 11.7326 944.8 8.745C939.243 8.51364 933.526 8.27563 927.623 8.02882C915.392 7.51747 903.722 7.02244 892.495 6.54622C796.256 2.46383 732.608 -0.236044 627.67 0.0163019C520.168 0.274814 352.507 8.02882 352.507 8.02882L0 40.8957Z" fill="#4154AF"/>
</svg>
