<svg width="1884" height="299" viewBox="0 0 1884 299" fill="none" xmlns="http://www.w3.org/2000/svg">
<path fill-rule="evenodd" clip-rule="evenodd" d="M1884 0H0V253.5L168.48 264.25L336.959 275C484.723 283.471 568.615 287.028 716.534 292C737.963 292.72 757.41 293.423 775.71 294.085C844.315 296.565 896.803 298.462 977.183 298.5C997.07 298.509 1015.96 298.588 1034.14 298.665C1110.79 298.986 1174.75 299.254 1247.25 294C1293.6 290.641 1319.84 289.151 1343.54 287.805C1365.69 286.547 1385.63 285.416 1417.71 283C1484.11 278 1534.81 273.217 1608.49 261.5C1650.66 254.792 1677.12 249.379 1711.51 242.345C1722.52 240.095 1734.33 237.678 1747.73 235C1801 224.353 1884 207 1884 207V0Z" fill="#4154AF"/>
</svg>
