<svg width="1922" height="327" viewBox="0 0 1922 327" fill="none" xmlns="http://www.w3.org/2000/svg">
<path d="M1 278.5L361.883 259.5C361.883 259.5 533.081 249.258 642.5 251.5C764.5 254 830.628 253.5 949.5 253.5C1033.19 253.5 1125.5 261 1210.5 264.5C1325.25 269.225 1362.5 272 1479 280C1574.7 286.572 1602.33 291.499 1697.91 299.5C1787.5 307 1921 326 1921 326V37C1921 37 1785.25 56.712 1697.91 66.5C1602.92 77.1458 1549.51 82.1684 1454.12 88.5C1343.71 95.8294 1281.62 97.605 1170.97 99.5C1083.66 100.995 1034.68 100.828 947.372 99.5C828.056 97.6845 761.154 95.0964 642.009 88.5C532.486 82.4363 470.761 81.2343 361.883 68C287.228 58.9255 245.451 52.6226 171.599 38.5C123.275 29.259 96.4158 22.8984 48.4448 12C29.8973 7.78623 1 1 1 1V278.5Z" fill="#F1F3FA" stroke="#F1F3FA"/>
</svg>
