<svg width="1902" height="237" viewBox="0 0 1902 237" fill="none" xmlns="http://www.w3.org/2000/svg">
<path d="M1 146.626C1 146.626 205.793 115.525 338 105.626C494.389 93.9161 739.5 97.6258 739.5 97.6258C739.5 97.6258 1032.73 103.938 1219.5 122.626C1413.03 141.989 1520.93 160.293 1712 196.626C1786.23 210.74 1901.5 235.626 1901.5 235.626V58.6258C1901.5 58.6258 1614.03 32.9701 1429.5 21.1258C1302.27 12.9592 1230.94 7.22992 1103.5 3.6258C961.406 -0.392642 881.62 0.683192 739.5 3.6258C582.589 6.87464 494.471 8.94936 338 21.1258C206.043 31.3945 1 57.1258 1 57.1258V146.626Z" fill="#F1F3FA" stroke="#F1F3FA"/>
</svg>
