<svg width="1904" height="322" viewBox="0 0 1904 322" fill="none" xmlns="http://www.w3.org/2000/svg">
<path d="M1 242.5L358.5 209.5C358.5 209.5 527.585 201.758 636 201.5C754.175 201.219 820.426 204.613 938.5 209.5C1021.33 212.929 1067.8 214.655 1150.5 220.5C1264 228.522 1327.42 235.88 1440.5 248.5C1534.95 259.041 1588.13 263.644 1682 278.5C1768.77 292.232 1903 320.5 1903 320.5V37C1903 37 1768.52 56.712 1682 66.5C1587.9 77.1458 1534.99 82.1684 1440.5 88.5C1331.12 95.8294 1269.61 97.605 1160 99.5C1073.51 100.995 1024.99 100.828 938.5 99.5C820.302 97.6845 754.027 95.0964 636 88.5C527.504 82.4363 466.357 81.2343 358.5 68C284.545 58.9255 243.159 52.6226 170 38.5C122.129 29.259 95.5213 22.8984 48 12C29.6264 7.78623 1 1 1 1V242.5Z" fill="#F1F3FA" stroke="#F1F3FA"/>
</svg>
